<?xml version="1.0" encoding="utf-8"?>
<!-- Generator: Adobe Illustrator 15.1.0, SVG Export Plug-In . SVG Version: 6.00 Build 0)  -->
<!DOCTYPE svg PUBLIC "-//W3C//DTD SVG 1.1//EN" "http://www.w3.org/Graphics/SVG/1.1/DTD/svg11.dtd">
<svg version="1.1" id="Layer_1" xmlns="http://www.w3.org/2000/svg" xmlns:xlink="http://www.w3.org/1999/xlink" x="0px" y="0px"
	 width="600px" height="106px" viewBox="0 0 600 106" enable-background="new 0 0 600 106" xml:space="preserve">
<g>
	<path fill="#F68620" d="M3.287,99.738V82.441l36.891-55.754H4.568V4.535h68.906v17.156L36.436,77.594h38.023v22.145H3.287z"/>
	<path fill="#F68620" d="M123.529,83.172c9.43,0,13.707-2.145,17.398-3.738l7.613,15.449c-5.457,2.859-12.176,6.582-27.73,6.582
		c-24.75,0-39.602-13.746-39.602-37.184c0-23.418,16.988-36.738,37.184-36.738c24.27,0,35.156,15.852,32.566,45.047h-42.168
		C110.236,79.574,114.924,83.172,123.529,83.172z M126.521,56.004c-0.16-6.441-2.309-11.016-8.449-11.016
		c-5.84,0-9,3.434-10.172,11.016H126.521z"/>
	<path fill="#F68620" d="M249.006,27.543c15.328,0,20.324,10.02,20.324,23.457v48.738h-25.727V56.426
		c0-5.719-1.441-7.848-5.867-7.848c-4.004,0-6.59,2.859-8.871,5.711v45.449h-25.703V56.426c0-5.719-2.027-7.848-5.879-7.848
		c-4.867,0-7.453,3.703-8.879,5.43v45.73h-25.742v-70.48h25.172v7.895c3.871-4.465,9.871-9.609,20.754-9.609
		c9.703,0,15.301,4.004,17.992,10.574C232.861,31,239.01,27.543,249.006,27.543z"/>
	<path fill="#F68620" d="M322.053,99.738c-0.684-1.707-1.273-4.707-1.414-6.844c-3.008,3.715-9.141,8.57-18.73,8.57
		c-12.152,0-22.023-6.996-22.023-20.57c0-18.035,17.758-25.461,37.465-25.461h2.023v-2.156c0-3.996-1.883-6.152-9.449-6.152
		c-8.438,0-15.02,4.312-17.59,6.012l-10.281-15.16c4.695-4.133,15.27-10.434,31.16-10.434c22.305,0,31.715,7.602,31.715,28.18
		v19.566c0,11.316,1.137,19.18,2.289,24.449H322.053z M319.373,70.293h-2.023c-8.129,0-13.578,2.578-13.578,8.145
		c0,3.441,2.578,5.457,7.016,5.457c4.422,0,6.844-1.895,8.586-3.281V70.293z"/>
	<path fill="#F68620" d="M401.553,99.738V56.426c0-5.719-1.996-7.848-7.031-7.848c-4.836,0-8.547,3.996-9.984,5.711v45.449h-25.734
		v-70.48h25.145v8.008c4.164-4.578,10.727-9.723,21.902-9.723c15.871,0,21.438,10.02,21.438,23.457v48.738H401.553z"/>
	<path fill="#F68620" d="M436.428,48.008v-18.75h10.859V8.812h25.594v20.445h15.578v18.75h-15.578v23.137
		c0,6.863,1.574,9.609,6.156,9.609c4.164,0,7.398-1.461,9.031-2.164l5.004,19.012c-3.629,1.727-10.18,3.863-19.883,3.863
		c-20.336,0-25.902-9.863-25.902-24.59V48.008H436.428z"/>
	<path fill="#F68620" d="M539.646,99.738c-0.73-1.707-1.293-4.707-1.434-6.844c-2.98,3.715-9.141,8.57-18.73,8.57
		c-12.18,0-22.023-6.996-22.023-20.57c0-18.035,17.75-25.461,37.465-25.461h1.996v-2.156c0-3.996-1.855-6.152-9.449-6.152
		c-8.41,0-14.965,4.312-17.551,6.012l-10.293-15.16c4.723-4.133,15.301-10.434,31.16-10.434c22.277,0,31.754,7.602,31.754,28.18
		v19.566c0,11.316,1.098,19.18,2.277,24.449H539.646z M536.92,70.293h-1.996c-8.156,0-13.559,2.578-13.559,8.145
		c0,3.441,2.562,5.457,7.004,5.457c4.418,0,6.863-1.895,8.551-3.281V70.293z"/>
	<g>
		<path fill="#F68620" d="M577.588,6.617v9.797h-2.531V6.617h-3.289V4.535h9.113v2.082H577.588z"/>
		<path fill="#F68620" d="M588.193,16.414l-2.027-6.141c-0.254-0.742-0.504-1.695-0.504-1.715l0,0c0,0.02-0.059,0.973-0.172,1.762
			l-0.73,6.094h-2.305l1.66-11.879h2.445l2.391,7.34c0.281,0.902,0.59,2.055,0.59,2.055h0.027c0,0,0.34-1.152,0.648-2.055
			l2.477-7.34h2.418l1.602,11.879h-2.559l-0.758-6.133c-0.086-0.824-0.172-1.723-0.172-1.723h-0.055c0,0-0.227,0.898-0.477,1.688
			l-2.055,6.168H588.193z"/>
	</g>
</g>
<g display="none">
	<path display="inline" fill="#F68620" d="M238.19,82.249v-3.604l7.686-11.615h-7.418v-4.615h14.355v3.574l-7.717,11.646h7.922
		v4.613H238.19z"/>
	<path display="inline" fill="#F68620" d="M263.241,78.798c1.965,0,2.855-0.447,3.625-0.779l1.586,3.219
		c-1.137,0.596-2.537,1.371-5.777,1.371c-5.156,0-8.25-2.863-8.25-7.746c0-4.879,3.539-7.654,7.746-7.654
		c5.057,0,7.324,3.303,6.785,9.385h-8.785C260.472,78.048,261.448,78.798,263.241,78.798z M263.864,73.138
		c-0.033-1.342-0.48-2.295-1.76-2.295c-1.217,0-1.875,0.715-2.119,2.295H263.864z"/>
	<path display="inline" fill="#F68620" d="M289.382,67.208c3.193,0,4.234,2.088,4.234,4.887v10.154h-5.359v-9.023
		c0-1.191-0.301-1.635-1.223-1.635c-0.834,0-1.373,0.596-1.848,1.189v9.469h-5.355v-9.023c0-1.191-0.422-1.635-1.225-1.635
		c-1.014,0-1.553,0.771-1.85,1.131v9.527h-5.363V67.565h5.244v1.645c0.807-0.93,2.057-2.002,4.324-2.002
		c2.021,0,3.188,0.834,3.748,2.203C286.019,67.929,287.3,67.208,289.382,67.208z"/>
	<path display="inline" fill="#F68620" d="M304.601,82.249c-0.143-0.355-0.266-0.98-0.295-1.426
		c-0.627,0.773-1.904,1.785-3.902,1.785c-2.531,0-4.588-1.457-4.588-4.285c0-3.758,3.699-5.305,7.805-5.305h0.422v-0.449
		c0-0.832-0.393-1.281-1.969-1.281c-1.758,0-3.129,0.898-3.664,1.252l-2.143-3.158c0.979-0.861,3.182-2.174,6.492-2.174
		c4.646,0,6.607,1.584,6.607,5.871v4.076c0,2.357,0.236,3.996,0.477,5.094H304.601z M304.042,76.114h-0.422
		c-1.693,0-2.828,0.537-2.828,1.697c0,0.717,0.537,1.137,1.461,1.137c0.922,0,1.426-0.395,1.789-0.684V76.114z"/>
	<path display="inline" fill="#F68620" d="M321.163,82.249v-9.023c0-1.191-0.416-1.635-1.465-1.635c-1.008,0-1.781,0.832-2.08,1.189
		v9.469h-5.361V67.565h5.238v1.668c0.867-0.953,2.234-2.025,4.562-2.025c3.307,0,4.467,2.088,4.467,4.887v10.154H321.163z"/>
	<path display="inline" fill="#F68620" d="M328.429,71.472v-3.906h2.262v-4.26h5.332v4.26h3.246v3.906h-3.246v4.82
		c0,1.43,0.328,2.002,1.283,2.002c0.867,0,1.541-0.305,1.881-0.451l1.043,3.961c-0.756,0.359-2.121,0.805-4.143,0.805
		c-4.236,0-5.396-2.055-5.396-5.123v-6.014H328.429z"/>
	<path display="inline" fill="#F68620" d="M349.933,82.249c-0.152-0.355-0.27-0.98-0.299-1.426
		c-0.621,0.773-1.904,1.785-3.902,1.785c-2.537,0-4.588-1.457-4.588-4.285c0-3.758,3.697-5.305,7.805-5.305h0.416v-0.449
		c0-0.832-0.387-1.281-1.969-1.281c-1.752,0-3.117,0.898-3.656,1.252l-2.145-3.158c0.984-0.861,3.188-2.174,6.492-2.174
		c4.641,0,6.615,1.584,6.615,5.871v4.076c0,2.357,0.229,3.996,0.475,5.094H349.933z M349.364,76.114h-0.416
		c-1.699,0-2.824,0.537-2.824,1.697c0,0.717,0.533,1.137,1.459,1.137c0.92,0,1.43-0.395,1.781-0.684V76.114z"/>
	<g display="inline">
		<path fill="#F68620" d="M357.837,62.849v2.041h-0.527v-2.041h-0.686v-0.434h1.898v0.434H357.837z"/>
		<path fill="#F68620" d="M360.046,64.89l-0.422-1.279c-0.053-0.154-0.105-0.354-0.105-0.357l0,0c0,0.004-0.012,0.203-0.035,0.367
			l-0.152,1.27h-0.48l0.346-2.475h0.51l0.498,1.529c0.059,0.188,0.123,0.428,0.123,0.428h0.006c0,0,0.07-0.24,0.135-0.428
			l0.516-1.529h0.504l0.334,2.475h-0.533l-0.158-1.277c-0.018-0.172-0.035-0.359-0.035-0.359h-0.012c0,0-0.047,0.188-0.1,0.352
			l-0.428,1.285H360.046z"/>
	</g>
</g>
</svg>
